<svg xmlns="http://www.w3.org/2000/svg" xmlns:xlink="http://www.w3.org/1999/xlink" width="24px" height="24px" fill="#FF5722" version="1.1" id="Layer_1" viewBox="0 0 295.239 295.239" xml:space="preserve">
<g>
	<g>
		<g>
			<path d="M128.572,219.048v23.81H33.333v9.524h228.571v-9.524h-95.238v-23.81h114.286c7.876,0,14.286-6.41,14.286-14.286V14.286     C295.238,6.41,288.829,0,280.952,0H14.286C6.41,0,0,6.41,0,14.286v190.476c0,7.876,6.41,14.286,14.286,14.286H128.572z      M157.143,242.857h-19.048v-23.81h19.048V242.857z M9.524,204.762V14.286c0-2.624,2.138-4.762,4.762-4.762h266.667     c2.624,0,4.762,2.138,4.762,4.762v190.476h-0.001c0,2.629-2.138,4.762-4.762,4.762H14.286     C11.662,209.524,9.524,207.391,9.524,204.762z"/>
			<path d="M276.19,38.095H19.048v142.857H276.19V38.095z M266.666,171.429H28.571V47.619h238.095V171.429z"/>
			<rect x="133.333" y="190.476" width="28.571" height="9.524"/>
			<path d="M61.905,138.095h34.01c2.129,8.19,9.524,14.286,18.371,14.286s16.243-6.095,18.371-14.286h44.21     c2.129,8.19,9.524,14.286,18.371,14.286c8.847,0,16.243-6.095,18.371-14.286h29.248v-37.462l-34.952-4.995l-14.486-28.971     h-67.395L106.79,95.514L61.905,100.5V138.095z M114.286,142.857c-5.252,0-9.524-4.271-9.524-9.524     c0-5.252,4.271-9.524,9.524-9.524c5.252,0,9.524,4.271,9.524,9.524C123.81,138.586,119.538,142.857,114.286,142.857z      M195.238,142.857c-5.252,0-9.524-4.271-9.524-9.524c0-5.252,4.271-9.524,9.524-9.524c5.253,0,9.524,4.271,9.524,9.524     C204.762,138.586,200.49,142.857,195.238,142.857z M71.429,109.024l40.829-4.538l18.862-28.295h56.414l14.086,28.171     l31.714,4.529v19.681H213.61c-2.129-8.191-9.524-14.286-18.372-14.286c-8.848,0-16.243,6.095-18.371,14.286h-44.21     c-2.129-8.19-9.524-14.286-18.371-14.286s-16.243,6.095-18.371,14.286H71.429V109.024z"/>
			<path d="M179.625,80.952H140.31l-15.871,23.81h63.124L179.625,80.952z M142.233,95.238l3.176-4.762h27.352l1.586,4.762H142.233z"/>
			<rect x="42.857" y="57.143" width="28.571" height="9.524"/>
			<rect x="42.857" y="76.19" width="28.571" height="9.524"/>
			<rect x="42.857" y="100" width="9.524" height="9.524"/>
			<rect x="42.857" y="152.381" width="42.857" height="9.524"/>
			<rect x="219.048" y="57.143" width="33.333" height="9.524"/>
			<rect x="219.048" y="76.19" width="33.333" height="9.524"/>
			<rect x="219.048" y="152.381" width="33.333" height="9.524"/>
			<rect x="133.333" y="152.381" width="9.524" height="9.524"/>
			<rect x="152.381" y="152.381" width="9.524" height="9.524"/>
			<rect x="42.857" y="119.048" width="9.524" height="9.524"/>
			<path d="M261.905,257.143c-18.381,0-33.333,14.957-33.333,33.333v4.762h66.667v-4.762     C295.238,272.1,280.286,257.143,261.905,257.143z M238.576,285.714c2.21-10.852,11.833-19.048,23.329-19.048     c11.495,0,21.119,8.195,23.329,19.048H238.576z"/>
			<path d="M4.762,271.429h14.286v14.286H4.762v9.524h214.286v-33.333H4.762V271.429z M195.238,271.428h14.286v14.286h-14.286     V271.428z M171.429,271.429h14.286v14.286h-14.286V271.429z M147.619,271.428h14.286v14.286h-14.286V271.428z M123.81,271.428     h14.286v14.286h-0.001H123.81V271.428z M100,271.428h14.286v14.286H100V271.428z M76.19,271.428h14.286v14.286H76.19V271.428z      M52.381,271.428h14.286v14.286H52.381V271.428z M28.571,271.429h14.286v14.286H28.571V271.429z"/>
			<rect x="133.333" y="19.048" width="9.524" height="9.524"/>
			<rect x="152.381" y="19.048" width="9.524" height="9.524"/>
		</g>
	</g>
</g>
</svg>