<svg xmlns="http://www.w3.org/2000/svg" xmlns:xlink="http://www.w3.org/1999/xlink" fill="#FF5722" height="24px" width="24px" version="1.1" id="Layer_1" viewBox="0 0 511.147 511.147" xml:space="preserve">
<g transform="translate(1 1)">
	<g>
		<g>
			<path d="M504.28,115.907l-0.853-0.853L395.053,6.68c-9.387-10.24-25.6-10.24-35.84,0l-11.947,11.947     c-1.707,1.707-2.56,3.413-2.56,5.973c0,2.56,0.853,4.267,2.56,5.973l5.973,5.973l-11.113,11.113l-5.954-5.993     c-3.413-3.413-8.533-3.413-11.947,0s-3.413,8.533,0,11.947l5.954,5.993L317.4,72.387L305.453,60.44     c-1.707-1.707-3.413-2.56-5.973-2.56c-1.707,0-4.267,0.853-5.12,2.56L149.293,205.507c-3.413,3.413-3.413,8.533,0,11.947     l8.533,8.533c11.947,11.947,30.72,11.947,42.667,0l17.92-17.92c6.826,0.535,13.483,1.891,19.874,3.965L103.213,346.307     c-12.8-4.267-24.747-4.267-35.84-0.853l-17.92-17.067c-3.413-3.413-8.533-3.413-11.947,0l-35.84,35.84     c-1.707,1.707-2.56,3.413-2.56,5.973c0,2.56,0.853,4.267,1.707,5.12l17.92,17.92c-9.387,27.307-1.707,58.027,18.773,78.507     c21.333,21.333,52.053,28.16,79.36,18.773l17.92,17.067c1.707,1.707,4.267,2.56,5.973,2.56s4.267-0.853,5.973-2.56l35.84-34.987     c1.707-1.707,2.56-3.413,2.56-5.973s-0.853-4.267-2.56-5.973l-17.92-17.92c4.267-11.947,3.413-23.04-0.853-35.84l134.518-135.319     c2.308,6.715,3.88,13.738,4.575,20.972l-17.92,17.92c-11.947,11.947-11.947,30.72,0,42.667l8.533,8.533     c1.707,1.707,3.413,2.56,5.973,2.56s5.12-0.853,5.12-2.56L449.667,216.6c3.413-3.413,3.413-8.533,0-11.947l-11.947-11.947     l12.394-12.394l6.379,6.421c1.707,1.707,3.413,2.56,5.973,2.56c2.56,0,4.267-0.853,5.973-2.56c3.413-3.413,3.413-8.533,0-11.947     l-6.379-6.421l11.499-11.499l5.973,5.973c3.413,3.413,8.533,3.413,11.947,0l11.947-11.947l0.853-0.853     C511.96,140.653,511.96,125.293,504.28,115.907z M148.44,399.213c-2.56,2.56-3.413,5.973-1.707,9.387     c5.973,16.213,4.267,25.6,0.853,33.28c-1.707,3.413-0.853,6.827,1.707,9.387l15.36,15.36l-23.893,23.04l-16.213-14.507     c-1.707-1.707-4.267-2.56-5.973-2.56c-0.853,0-1.707,0-2.56,0.853c-23.04,9.387-48.64,4.267-65.707-12.8     c-17.067-17.067-22.187-43.52-12.8-65.707c1.707-3.413,0.853-6.827-1.707-9.387L20.44,370.2l23.893-23.893l15.36,15.36     c2.56,2.56,5.973,3.413,9.387,1.707c7.68-3.413,17.067-5.973,33.28,0.853c3.413,1.707,6.827,0.853,9.387-1.707l143.693-142.843     c14.944,8.584,27.5,21.321,36.001,36.536L148.44,399.213z M299.48,343.747l-2.56-2.56c-5.12-5.12-5.12-13.653,0-18.773     l20.48-20.48c1.707-1.707,2.56-4.267,2.56-6.827c-0.866-14.071-4.537-27.59-10.419-39.978c-0.146-0.609-0.367-1.222-0.674-1.836     c-5.084-10.167-11.795-19.604-19.694-27.927c-0.59-0.627-1.187-1.248-1.79-1.862c-0.167-0.169-0.331-0.342-0.499-0.51     c-8.908-8.953-19.235-16.446-30.516-22.014c-0.036-0.019-0.072-0.037-0.108-0.055c-12.761-6.281-26.738-10.098-41.259-10.779     c-1.707,0-4.267,0.853-5.973,2.56l-20.48,20.48c-5.12,5.12-13.653,5.12-18.773,0l-2.56-2.56L299.48,78.36l11.946,11.946     c0,0,0,0,0.001,0.001L420.653,198.68l11.947,11.947L299.48,343.747z M426.2,181.187l-96.853-96.853l12.742-12.742l96.542,97.165     L426.2,181.187z M354.036,59.644L366.04,47.64l96.853,96.853l-12.316,12.316L354.036,59.644z M492.333,138.947l-5.12,5.12     l-5.973-5.973c-0.824-0.824-1.749-1.445-2.724-1.871L372.013,29.72c0,0,0,0-0.001-0.001l-5.973-5.973l5.973-5.973     c3.413-3.413,8.533-3.413,11.947,0l108.373,108.373C494.893,129.56,494.893,135.533,492.333,138.947z"/>
			<path d="M245.72,253.293l-81.067,81.067c-3.413,3.413-3.413,8.533,0,11.947c1.707,1.707,3.413,2.56,5.973,2.56     c1.707,0,4.267-0.853,5.973-2.56l81.067-81.067c3.413-3.413,3.413-8.533,0-11.947C254.253,249.88,249.133,249.88,245.72,253.293z     "/>
			<path d="M62.253,388.973c-8.533,7.68-12.8,18.773-12.8,29.867s5.12,22.187,12.8,29.867c7.68,8.533,18.773,12.8,29.867,12.8     c11.093,0,22.187-5.12,30.72-12.8c8.533-7.68,12.8-18.773,12.8-29.867s-5.12-22.187-12.8-29.867     C105.773,372.76,78.467,372.76,62.253,388.973z M110.04,436.76c-9.387,9.387-26.453,9.387-35.84,0     c-5.12-4.267-7.68-11.093-7.68-17.92s2.56-12.8,7.68-17.92c5.12-5.12,11.093-7.68,17.92-7.68c6.827,0,12.8,1.707,17.92,7.68     c5.12,4.267,7.68,11.093,7.68,17.92S115.16,431.64,110.04,436.76z"/>
			<path d="M323.373,151.747c-18.773,0-34.133,15.36-34.133,34.133c0,18.773,15.36,34.133,34.133,34.133     c18.773,0,34.133-15.36,34.133-34.133C357.507,167.107,342.147,151.747,323.373,151.747z M323.373,202.947     c-9.387,0-17.067-7.68-17.067-17.067s7.68-17.067,17.067-17.067s17.067,7.68,17.067,17.067S332.76,202.947,323.373,202.947z"/>
		</g>
	</g>
</g>
</svg>