<svg xmlns="http://www.w3.org/2000/svg" width="42" height="42" viewBox="0 0 42 42" fill="none"><g clip-path="url(#clip0_2065_608)"><path fill-rule="evenodd" clip-rule="evenodd" d="M9.46507 9.09047C5.87086 7.98519 13.2062 6.26005 12.4286 5.98621C11.2457 5.57049 4.71585 7.0442 5.0198 7.57195C6.28626 9.78003 8.51776 9.35932 9.46507 9.09047ZM11.3496 20.208C4.2574 29.1366 5.1017 36.1235 13.8825 41.1686C9.17969 41.2134 5.83118 39.6268 3.83693 36.4089C1.4256 31.4053 2.16606 25.8564 6.0583 19.7624C7.882 17.5403 7.60506 16.1628 5.2275 15.6301C0.465626 15.1621 -1.83933 12.0678 1.75741 8.18434C10.035 -0.834681 24.7081 4.5847 18.7279 12.9938L11.3496 20.208Z" fill="#E73E0E"/><path fill-rule="evenodd" clip-rule="evenodd" d="M38.6853 40.8261C40.2996 36.4813 41.1059 34.3089 41.1043 34.3089C39.2687 34.3802 37.4695 34.3802 35.7066 34.3089C41.0392 28.9517 42.4079 23.8958 39.8125 19.1411C33.2573 7.13978 6.88458 16.821 8.47525 31.8369C8.94638 36.2854 13.7665 40.4726 18.2827 40.7638C26.9368 41.0393 33.7377 41.0576 38.6853 40.8186M27.7203 20.5625C31.8946 20.911 33.6879 24.2418 31.8591 27.9062C30.0304 31.5705 26.3424 33.5869 22.9458 33.5869C19.5492 33.5869 16.2006 30.8038 17.4088 26.8656C18.617 22.9274 23.5562 20.2165 27.7203 20.5625Z" fill="#E73E0E"/><path d="M15.1016 4.57797C15.1497 1.83965 18.1031 0.308683 20.5372 0C18.9381 0.771707 17.7392 1.55088 16.9405 2.33753C16.1806 3.08932 15.7939 3.83613 15.7804 4.57797H15.1016Z" fill="#E73E0E"/><path d="M8.21094 5.41249C8.25906 2.67417 11.2124 1.1432 13.6466 0.832031C12.0458 1.6054 10.8469 2.3854 10.0498 3.17205C9.28996 3.92052 8.90327 4.66733 8.88976 5.41249H8.21094Z" fill="#E73E0E"/><path fill-rule="evenodd" clip-rule="evenodd" d="M24.864 25.4414C25.1252 25.4409 25.3807 25.5166 25.5981 25.659C25.8155 25.8013 25.985 26.0038 26.0852 26.2409C26.1854 26.478 26.2118 26.739 26.1609 26.9908C26.1101 27.2426 25.9844 27.4739 25.7997 27.6555C25.6149 27.837 25.3796 27.9606 25.1234 28.0105C24.8671 28.0605 24.6016 28.0346 24.3603 27.9361C24.1191 27.8377 23.913 27.671 23.7682 27.4574C23.6234 27.2437 23.5464 26.9926 23.5469 26.7359C23.5469 26.3926 23.6856 26.0633 23.9327 25.8206C24.1797 25.5778 24.5147 25.4414 24.864 25.4414Z" fill="#E73E0E"/><path fill-rule="evenodd" clip-rule="evenodd" d="M21.7327 26.6364C22.1734 25.0134 23.2237 23.5571 24.8836 22.2676C20.6199 23.489 19.5696 24.9453 21.7327 26.6364Z" fill="#E73E0E"/><path fill-rule="evenodd" clip-rule="evenodd" d="M30.3197 23.9722C30.6101 25.1173 30.6101 26.1131 30.3197 26.9594C29.6442 25.5588 28.2174 24.4676 26.0391 23.6859C27.623 22.403 29.0499 22.501 30.3197 23.9797" fill="#E73E0E"/><path fill-rule="evenodd" clip-rule="evenodd" d="M28.4191 27.6445C27.1261 29.0644 25.6264 30.2884 23.9688 31.2765C25.7165 31.3197 27.2117 30.8923 28.4545 29.9945C28.6441 29.6297 28.7399 29.2248 28.7337 28.8152C28.7275 28.4056 28.6195 28.0037 28.4191 27.6445Z" fill="#E73E0E"/><path fill-rule="evenodd" clip-rule="evenodd" d="M19.0564 27.5049C20.3971 28.8608 21.8814 29.576 23.5092 29.6507C20.3211 31.5808 18.8368 30.8655 19.0564 27.5049Z" fill="#E73E0E"/></g><defs><clipPath id="clip0_2065_608"><rect width="42" height="41.6" fill="white"/></clipPath></defs></svg>