<svg xmlns="http://www.w3.org/2000/svg" width="208" height="42" viewBox="0 0 208 42" fill="none"><g clip-path="url(#clip0_2065_608)"><path fill-rule="evenodd" clip-rule="evenodd" d="M9.46507 9.09047C5.87086 7.98519 13.2062 6.26005 12.4286 5.98621C11.2457 5.57049 4.71585 7.0442 5.0198 7.57195C6.28626 9.78003 8.51776 9.35932 9.46507 9.09047ZM11.3496 20.208C4.2574 29.1366 5.1017 36.1235 13.8825 41.1686C9.17969 41.2134 5.83118 39.6268 3.83693 36.4089C1.4256 31.4053 2.16606 25.8564 6.0583 19.7624C7.882 17.5403 7.60506 16.1628 5.2275 15.6301C0.465626 15.1621 -1.83933 12.0678 1.75741 8.18434C10.035 -0.834681 24.7081 4.5847 18.7279 12.9938L11.3496 20.208Z" fill="#E73E0E"/><path fill-rule="evenodd" clip-rule="evenodd" d="M38.6853 40.8261C40.2996 36.4813 41.1059 34.3089 41.1043 34.3089C39.2687 34.3802 37.4695 34.3802 35.7066 34.3089C41.0392 28.9517 42.4079 23.8958 39.8125 19.1411C33.2573 7.13978 6.88458 16.821 8.47525 31.8369C8.94638 36.2854 13.7665 40.4726 18.2827 40.7638C26.9368 41.0393 33.7377 41.0576 38.6853 40.8186M27.7203 20.5625C31.8946 20.911 33.6879 24.2418 31.8591 27.9062C30.0304 31.5705 26.3424 33.5869 22.9458 33.5869C19.5492 33.5869 16.2006 30.8038 17.4088 26.8656C18.617 22.9274 23.5562 20.2165 27.7203 20.5625Z" fill="#E73E0E"/><path d="M15.1016 4.57797C15.1497 1.83965 18.1031 0.308683 20.5372 0C18.9381 0.771707 17.7392 1.55088 16.9405 2.33753C16.1806 3.08932 15.7939 3.83613 15.7804 4.57797H15.1016Z" fill="#E73E0E"/><path d="M8.21094 5.41249C8.25906 2.67417 11.2124 1.1432 13.6466 0.832031C12.0458 1.6054 10.8469 2.3854 10.0498 3.17205C9.28996 3.92052 8.90327 4.66733 8.88976 5.41249H8.21094Z" fill="#E73E0E"/><path fill-rule="evenodd" clip-rule="evenodd" d="M24.864 25.4414C25.1252 25.4409 25.3807 25.5166 25.5981 25.659C25.8155 25.8013 25.985 26.0038 26.0852 26.2409C26.1854 26.478 26.2118 26.739 26.1609 26.9908C26.1101 27.2426 25.9844 27.4739 25.7997 27.6555C25.6149 27.837 25.3796 27.9606 25.1234 28.0105C24.8671 28.0605 24.6016 28.0346 24.3603 27.9361C24.1191 27.8377 23.913 27.671 23.7682 27.4574C23.6234 27.2437 23.5464 26.9926 23.5469 26.7359C23.5469 26.3926 23.6856 26.0633 23.9327 25.8206C24.1797 25.5778 24.5147 25.4414 24.864 25.4414Z" fill="#E73E0E"/><path fill-rule="evenodd" clip-rule="evenodd" d="M21.7327 26.6364C22.1734 25.0134 23.2237 23.5571 24.8836 22.2676C20.6199 23.489 19.5696 24.9453 21.7327 26.6364Z" fill="#E73E0E"/><path fill-rule="evenodd" clip-rule="evenodd" d="M30.3197 23.9722C30.6101 25.1173 30.6101 26.1131 30.3197 26.9594C29.6442 25.5588 28.2174 24.4676 26.0391 23.6859C27.623 22.403 29.0499 22.501 30.3197 23.9797" fill="#E73E0E"/><path fill-rule="evenodd" clip-rule="evenodd" d="M28.4191 27.6445C27.1261 29.0644 25.6264 30.2884 23.9688 31.2765C25.7165 31.3197 27.2117 30.8923 28.4545 29.9945C28.6441 29.6297 28.7399 29.2248 28.7337 28.8152C28.7275 28.4056 28.6195 28.0037 28.4191 27.6445Z" fill="#E73E0E"/><path fill-rule="evenodd" clip-rule="evenodd" d="M19.0564 27.5049C20.3971 28.8608 21.8814 29.576 23.5092 29.6507C20.3211 31.5808 18.8368 30.8655 19.0564 27.5049Z" fill="#E73E0E"/><path fill-rule="evenodd" clip-rule="evenodd" d="M79.4986 30.943H84.9773L83.683 25.5809L79.4986 30.943ZM85.9475 34.9559H76.3705L71.8113 40.801C71.4831 41.2232 70.9977 41.5 70.4619 41.5705C69.9261 41.641 69.3837 41.4994 68.9541 41.1769C68.5245 40.8543 68.2429 40.3773 68.1712 39.8507C68.0994 39.3241 68.2435 38.791 68.5717 38.3688L83.0549 19.7981C83.286 19.4926 83.6015 19.2586 83.9638 19.1239C84.3261 18.9892 84.7201 18.9594 85.0991 19.038C85.4781 19.1165 85.8263 19.3003 86.1023 19.5673C86.3784 19.8344 86.5708 20.1737 86.6567 20.5449L91.145 39.1181C91.2157 39.3775 91.2328 39.6481 91.1952 39.914C91.1576 40.18 91.066 40.4358 90.926 40.6663C90.7859 40.8968 90.6002 41.0974 90.3799 41.2561C90.1595 41.4148 89.909 41.5284 89.6432 41.5903C89.3773 41.6521 89.1016 41.6608 88.8322 41.616C88.5629 41.5712 88.3054 41.4737 88.0751 41.3293C87.8448 41.1849 87.6463 40.9965 87.4914 40.7753C87.3365 40.5542 87.2284 40.3047 87.1734 40.0417L85.9475 34.9559ZM106.163 29.6236L113.067 38.3489C113.402 38.7688 113.552 39.302 113.487 39.8312C113.421 40.3604 113.144 40.8422 112.717 41.1706C112.289 41.4991 111.747 41.6473 111.208 41.5826C110.67 41.518 110.18 41.2458 109.845 40.8258L102.247 31.2368H101.378L99.1718 40.079C99.1079 40.3344 98.9935 40.5748 98.8351 40.7867C98.6767 40.9985 98.4774 41.1777 98.2485 41.3138C98.0197 41.45 97.7658 41.5405 97.5013 41.5802C97.2369 41.6199 96.967 41.608 96.7073 41.5453C96.4475 41.4825 96.2028 41.3701 95.9873 41.2144C95.7717 41.0587 95.5894 40.8628 95.4509 40.6379C95.3124 40.4129 95.2203 40.1634 95.1799 39.9035C95.1394 39.6436 95.1515 39.3784 95.2154 39.1231L99.8759 20.5374C99.9398 20.2823 100.054 20.042 100.213 19.8303C100.371 19.6186 100.57 19.4396 100.799 19.3035C101.028 19.1675 101.281 19.0771 101.546 19.0374C101.81 18.9978 102.08 19.0097 102.339 19.0724C102.599 19.1352 102.843 19.2476 103.059 19.4032C103.274 19.5589 103.456 19.7547 103.595 19.9795C103.733 20.2043 103.825 20.4537 103.865 20.7134C103.906 20.9732 103.894 21.2382 103.83 21.4933L102.394 27.2189H102.609L113.693 19.3948C114.13 19.0848 114.674 18.958 115.205 19.0423C115.737 19.1266 116.213 19.415 116.529 19.8441C116.844 20.2733 116.973 20.808 116.887 21.3306C116.802 21.8533 116.508 22.321 116.071 22.631L106.163 29.6236ZM176.479 22.9845L174.853 28.9341C176.542 29.0436 178.832 28.9615 180.172 27.9632C181.104 27.2637 181.692 26.5941 181.96 25.9717C182.104 25.6811 182.164 25.3575 182.135 25.0357C182.095 24.7623 181.981 24.5045 181.806 24.2889C181.44 23.8497 180.968 23.5074 180.433 23.2932C179.554 22.9048 178.183 22.9397 176.54 22.982L176.479 22.9845ZM171.798 40.1014C171.659 40.6151 171.317 41.0533 170.849 41.3196C170.381 41.586 169.824 41.6586 169.302 41.5216C168.779 41.3846 168.333 41.0492 168.062 40.5891C167.791 40.129 167.717 39.582 167.857 39.0683L170.281 30.2087C170.296 30.1354 170.315 30.0631 170.339 29.9921L172.938 20.4951C173.055 20.0434 173.33 19.6464 173.715 19.3735C174.1 19.1005 174.569 18.9689 175.043 19.0015C175.501 19.0015 175.982 18.984 176.441 18.9741C178.586 18.9193 180.372 18.8745 182.089 19.6288C183.246 20.1159 184.261 20.8782 185.043 21.8468C185.668 22.6412 186.062 23.5877 186.182 24.5851C186.299 25.6191 186.123 26.6645 185.676 27.6073C185.126 28.8146 184.141 30.0219 182.636 31.1422C180.017 33.1013 176.094 33.0963 173.771 32.8673L171.798 40.1014ZM189.136 37.5897H203.067L199.341 25.2249L189.136 37.5897ZM205.785 41.605H184.86C184.458 41.6071 184.065 41.4925 183.729 41.2756C183.393 41.0587 183.129 40.7492 182.972 40.3857C182.814 40.0223 182.769 39.6212 182.842 39.2327C182.915 38.8443 183.104 38.4857 183.384 38.202L198.606 19.7508C198.839 19.4646 199.147 19.247 199.497 19.1217C199.847 18.9965 200.225 18.9685 200.59 19.0407C200.955 19.113 201.293 19.2828 201.567 19.5315C201.84 19.7802 202.038 20.0981 202.14 20.4503L207.74 39.0235C207.829 39.3221 207.846 39.637 207.789 39.9431C207.733 40.2492 207.605 40.5382 207.415 40.7873C207.225 41.0363 206.979 41.2385 206.696 41.3778C206.413 41.5172 206.101 41.5898 205.785 41.5901V41.605ZM128.166 26.5742C126.583 26.7488 125.06 27.2666 123.706 28.0902C122.576 28.8171 121.895 29.6884 121.933 30.5323C121.971 31.3762 122.713 32.1902 123.896 32.8349C124.696 33.2592 125.555 33.567 126.446 33.7485L128.166 26.5742ZM135.367 27.6521C134.416 27.1585 133.39 26.8221 132.328 26.6563L130.555 33.9776C132.528 33.7958 134.263 33.2308 135.529 32.4043C136.656 31.6774 137.34 30.8061 137.302 29.9622C137.264 29.1183 136.56 28.2968 135.377 27.6521H135.367ZM133.285 22.753C134.708 23.0058 136.081 23.4762 137.355 24.147C139.777 25.4639 141.317 27.4554 141.408 29.8054C141.499 32.1553 140.109 34.2489 137.794 35.7425C135.785 37.0395 133.006 37.8959 129.942 38.0104H129.868H129.615L129.131 40.0317C129.008 40.5497 128.682 40.9986 128.222 41.2796C127.763 41.5606 127.209 41.6508 126.682 41.5303C126.155 41.4099 125.698 41.0885 125.412 40.6371C125.126 40.1857 125.034 39.6411 125.157 39.1231L125.519 37.6295C124.264 37.3637 123.054 36.9236 121.925 36.3226C119.503 35.0057 117.961 33.0167 117.872 30.6667C117.784 28.3167 119.169 26.2207 121.484 24.727C123.452 23.4575 126.163 22.6086 129.164 22.4692L129.628 20.5399C129.688 20.2836 129.8 20.0416 129.956 19.8276C130.111 19.6137 130.309 19.432 130.536 19.2929C130.763 19.1539 131.016 19.0602 131.28 19.0173C131.545 18.9743 131.815 18.9829 132.076 19.0425C132.336 19.1022 132.583 19.2118 132.8 19.365C133.018 19.5182 133.203 19.712 133.344 19.9354C133.486 20.1588 133.581 20.4075 133.625 20.6671C133.669 20.9267 133.66 21.1922 133.599 21.4485L133.285 22.753ZM157.348 22.7082C156.929 22.6384 156.506 22.6051 156.081 22.6086C153.923 22.6086 151.801 23.4824 150.114 24.8938C148.388 26.3049 147.207 28.256 146.77 30.4202C146.691 30.8616 146.652 31.3089 146.654 31.757C146.626 33.1181 147.083 34.446 147.946 35.511C148.816 36.5314 150.03 37.2107 151.368 37.4254C151.786 37.4951 152.21 37.5284 152.634 37.5249C154.792 37.5249 156.915 36.6512 158.602 35.2397C160.328 33.8286 161.508 31.8776 161.945 29.7133C162.024 29.272 162.063 28.8246 162.062 28.3765C162.089 27.0154 161.633 25.6875 160.77 24.6225C159.901 23.6037 158.69 22.9245 157.355 22.7082H157.348ZM156.081 18.5957C156.745 18.597 157.407 18.6562 158.06 18.7725C160.353 19.1495 162.433 20.3235 163.921 22.0808C165.392 23.8593 166.184 26.0872 166.16 28.379C166.156 29.0645 166.091 29.7485 165.965 30.4227C165.359 33.4973 163.693 36.2728 161.248 38.2817C158.845 40.2956 155.787 41.5403 152.637 41.5403C151.973 41.5389 151.311 41.4797 150.658 41.3636C148.37 40.9832 146.296 39.8094 144.812 38.0552C143.345 36.2763 142.555 34.0495 142.581 31.7595C142.584 31.0738 142.65 30.3898 142.778 29.7158C143.383 26.641 145.047 23.8652 147.492 21.8568C149.904 19.8404 152.958 18.5957 156.096 18.5957H156.081ZM44.8636 40.4624C44.61 40.9094 44.1922 41.2442 43.6956 41.3984C43.1991 41.5525 42.6614 41.5144 42.1925 41.2918C41.7237 41.0692 41.3591 40.6789 41.1733 40.2008C40.9876 39.7227 40.9948 39.1929 41.1934 38.7198L50.4056 20.1341C50.5959 19.7523 50.9048 19.4397 51.2876 19.2416C51.6704 19.0434 52.1074 18.9699 52.5355 19.0317C52.9636 19.0934 53.3606 19.2873 53.6693 19.5852C53.978 19.8831 54.1825 20.2697 54.2531 20.6893L55.7728 29.1532L62.8777 19.8155C63.1442 19.4651 63.5199 19.21 63.9476 19.0889C64.3753 18.9678 64.8315 18.9874 65.2468 19.1447C65.6622 19.302 66.0138 19.5884 66.2482 19.9602C66.4826 20.3321 66.587 20.769 66.5453 21.2046L66.249 39.626C66.2448 39.8885 66.1881 40.1476 66.082 40.3886C65.976 40.6295 65.8227 40.8476 65.6309 41.0303C65.4391 41.2131 65.2125 41.3569 64.9642 41.4536C64.7158 41.5503 64.4505 41.5979 64.1834 41.5938C63.9163 41.5897 63.6526 41.534 63.4074 41.4298C63.1623 41.3255 62.9404 41.1748 62.7545 40.9863C62.5685 40.7978 62.4222 40.5752 62.3238 40.3311C62.2255 40.087 62.177 39.8262 62.1811 39.5637L62.3812 27.1741L56.2237 35.2621C55.987 35.5788 55.6608 35.8202 55.2856 35.9561C54.9105 36.0921 54.5029 36.1166 54.1137 36.0267C53.7244 35.9368 53.3707 35.7363 53.0964 35.4503C52.8222 35.1643 52.6395 34.8054 52.5712 34.4182L51.3251 27.4479L44.8636 40.4624Z" fill="#000"/></g><defs><clipPath id="clip0_2065_608"><rect width="208" height="41.6" fill="white"/></clipPath></defs></svg>