<svg xmlns="http://www.w3.org/2000/svg" width="40" height="40" fill="none"><path d="M20 40c11.046 0 20-8.954 20-20S31.046 0 20 0 0 8.954 0 20s8.954 20 20 20Z" fill="url(#a)"/><path d="M16.334 29.167c-.648 0-.538-.244-.762-.861l-1.905-6.271 14.667-8.701" fill="#C8DAEA"/><path d="M16.333 29.167c.5 0 .72-.229 1-.5L20 26.074l-3.327-2.006" fill="#A9C9DD"/><path d="m16.674 24.068 8.06 5.954c.92.508 1.583.245 1.812-.853l3.281-15.461c.336-1.347-.513-1.957-1.393-1.558L9.169 19.578c-1.315.528-1.308 1.262-.24 1.588l4.944 1.543 11.445-7.22c.54-.328 1.037-.152.63.21" fill="url(#b)"/><defs><linearGradient id="a" x1="26.668" y1="6.668" x2="16.668" y2="30" gradientUnits="userSpaceOnUse"><stop stop-color="#37AEE2"/><stop offset="1" stop-color="#1E96C8"/></linearGradient><linearGradient id="b" x1="22.501" y1="19.999" x2="25.631" y2="27.121" gradientUnits="userSpaceOnUse"><stop stop-color="#EFF7FC"/><stop offset="1" stop-color="#fff"/></linearGradient></defs></svg>